<?xml version="1.0" encoding="utf-8"?>
<!-- Generator: Adobe Illustrator 19.0.0, SVG Export Plug-In . SVG Version: 6.00 Build 0)  -->
<svg version="1.1" id="Layer_1" xmlns="http://www.w3.org/2000/svg" xmlns:xlink="http://www.w3.org/1999/xlink" x="0px" y="0px"
	 viewBox="0 0 375 250" style="enable-background:new 0 0 375 250;" xml:space="preserve">
<style type="text/css">
	.st0{fill:#464546;}
	.st1{enable-background:new    ;}
	.st2{fill:#0073A8;}
	.st3{clip-path:url(#XMLID_18_);enable-background:new    ;}
	.st4{fill:#0075AA;}
	.st5{fill:#008FC7;}
	.st6{clip-path:url(#XMLID_19_);enable-background:new    ;}
	.st7{fill:#0077AC;}
	.st8{fill:#0078AE;}
	.st9{clip-path:url(#XMLID_26_);enable-background:new    ;}
	.st10{clip-path:url(#XMLID_28_);enable-background:new    ;}
	.st11{clip-path:url(#XMLID_33_);enable-background:new    ;}
	.st12{clip-path:url(#XMLID_34_);enable-background:new    ;}
	.st13{clip-path:url(#XMLID_35_);enable-background:new    ;}
	.st14{fill:#F19B13;}
	.st15{clip-path:url(#XMLID_36_);enable-background:new    ;}
	.st16{clip-path:url(#XMLID_37_);enable-background:new    ;}
	.st17{fill:#F09813;}
	.st18{clip-path:url(#XMLID_38_);enable-background:new    ;}
	.st19{fill:#FFD210;}
	.st20{clip-path:url(#XMLID_45_);enable-background:new    ;}
	.st21{clip-path:url(#XMLID_46_);enable-background:new    ;}
	.st22{fill:#89224F;}
	.st23{fill:#D2337A;}
	.st24{fill:#5BAF31;}
	.st25{fill:#97C45A;}
	.st26{fill:#008CB0;}
	.st27{fill:#009ED7;}
	.st28{fill:#FFFFFF;}
	.st29{fill:#C12B72;}
	.st30{fill:#DF3682;}
	.st31{fill:#EFCB00;}
	.st32{fill:#FFE30C;}
	.st33{fill:#232323;}
	.st34{fill:none;stroke:#464546;stroke-width:0.5;stroke-linecap:round;stroke-linejoin:round;stroke-miterlimit:10;}
	.st35{fill:#A09E9E;}
	.st36{fill:#8A8A8A;}
	.st37{fill:#EBEBEB;}
	.st38{fill:#C1C0C0;}
	.st39{opacity:0.36;fill:#A09E9E;}
	.st40{fill:none;stroke:#A09E9E;stroke-width:0.75;stroke-linecap:round;stroke-linejoin:round;stroke-miterlimit:10;}
	.st41{fill:none;}
	.st42{fill:url(#XMLID_56_);}
	.st43{fill:url(#XMLID_58_);}
	.st44{fill:url(#XMLID_59_);}
	.st45{fill:#F8A939;}
	.st46{fill:#DE892F;}
	.st47{fill:#BB7827;}
	.st48{fill:#FCCC89;}
	.st49{fill:#E3A74E;}
	.st50{opacity:0.8;fill:#FFFFFF;}
	.st51{fill:#DF3682;stroke:#DF3682;stroke-miterlimit:10;}
	.st52{display:none;fill:#FFFFFF;stroke:#000000;stroke-miterlimit:10;}
</style>
<g id="XMLID_2_">
	<polygon id="XMLID_567_" class="st0" points="324.4,144.6 320.3,144.5 320.3,143.3 324.4,143.5 	"/>
	<g id="XMLID_388_">
		<g id="XMLID_445_">
			<g id="XMLID_39_">
				<g id="XMLID_469_" class="st1">
					<g id="XMLID_482_">
						<polygon id="XMLID_483_" class="st2" points="59.7,32.8 77.5,41 82.7,50.5 65.2,43.2 						"/>
					</g>
					<g id="XMLID_478_" class="st1">
						<defs>
							<path id="XMLID_481_" class="st1" d="M65.2,43.2l17.5,7.3c0.4,0.7,0.7,1.3,1,1.9c0.3,0.6,0.6,1.2,0.9,1.8
								c0.3,0.6,0.6,1.2,0.9,1.8c0.3,0.6,0.6,1.2,0.9,1.8l-17.2-6.6c-0.3-0.7-0.6-1.3-0.9-2c-0.3-0.6-0.6-1.3-0.9-1.9
								c-0.3-0.6-0.7-1.3-1-1.9C66,44.6,65.6,43.9,65.2,43.2z"/>
						</defs>
						<clipPath id="XMLID_18_">
							<use xlink:href="#XMLID_481_"  style="overflow:visible;"/>
						</clipPath>
						<g id="XMLID_479_" class="st3">
							<path id="XMLID_480_" class="st4" d="M65.2,43.2l17.5,7.3c0.4,0.7,0.7,1.3,1,1.9c0.3,0.6,0.6,1.2,0.9,1.8
								c0.3,0.6,0.6,1.2,0.9,1.8c0.3,0.6,0.6,1.2,0.9,1.8l-17.2-6.6c-0.3-0.7-0.6-1.3-0.9-2c-0.3-0.6-0.6-1.3-0.9-1.9
								c-0.3-0.6-0.7-1.3-1-1.9C66,44.6,65.6,43.9,65.2,43.2"/>
						</g>
					</g>
					<g id="XMLID_476_">
						<polygon id="XMLID_477_" class="st2" points="83.6,30.2 99.6,38.7 88.6,60.9 71.5,54.6 						"/>
					</g>
					<g id="XMLID_474_">
						<polygon id="XMLID_475_" class="st2" points="72,71.8 89.1,76.7 84.5,77.1 67,72.3 						"/>
					</g>
					<g id="XMLID_472_">
						<polygon id="XMLID_473_" class="st2" points="71.5,54.6 88.6,60.9 89.1,76.7 72,71.8 						"/>
					</g>
					<g id="XMLID_470_">
						<path id="XMLID_471_" class="st5" d="M83.6,30.2L71.5,54.6L72,71.8l-5,0.4l-0.4-17.2L54.3,33.4l5.4-0.6l5.5,10.4
							c0.4,0.7,0.7,1.4,1.1,2.1c0.3,0.7,0.7,1.3,1,1.9c0.3,0.6,0.6,1.3,0.9,1.9c0.3,0.6,0.6,1.3,0.9,2l0.1,0
							c0.2-0.7,0.5-1.4,0.8-2.1c0.3-0.7,0.6-1.4,0.9-2.1c0.3-0.7,0.6-1.4,0.9-2.2c0.3-0.7,0.7-1.5,1-2.3L78,30.8L83.6,30.2z"/>
					</g>
				</g>
				<g id="XMLID_449_" class="st1">
					<g id="XMLID_463_" class="st1">
						<defs>
							<path id="XMLID_468_" class="st1" d="M110.2,32.9l13.9,8.4c-0.4-0.3-0.9-0.5-1.3-0.7c-0.5-0.2-0.9-0.3-1.4-0.4
								c-0.5-0.1-1-0.2-1.5-0.2c-0.5,0-1.1,0-1.7,0c0,0,0,0,0,0c0,0,0,0,0,0c0,0,0,0,0,0s0,0,0,0c-1.9,0.2-3.6,0.8-5,1.8
								c-1.4,1-2.6,2.2-3.5,3.8c-0.9,1.5-1.5,3.3-1.9,5.1c-0.4,1.9-0.6,3.9-0.5,5.9c0.1,1.6,0.3,3.1,0.7,4.5c0.4,1.4,0.9,2.8,1.6,4
								c0.7,1.2,1.5,2.3,2.4,3.1c0.9,0.9,2,1.6,3.2,2l-14.9-5.6c-1.3-0.5-2.5-1.2-3.5-2.2c-1-1-1.9-2.1-2.6-3.4
								c-0.7-1.3-1.3-2.8-1.7-4.3c-0.4-1.6-0.6-3.2-0.7-4.9c-0.1-2.2,0.1-4.4,0.6-6.5c0.4-2.1,1.2-4,2.1-5.6c1-1.7,2.2-3.1,3.8-4.1
								c1.5-1.1,3.3-1.8,5.4-2c0,0,0,0,0,0s0,0,0,0s0,0,0,0c0,0,0,0,0,0c0.6-0.1,1.2-0.1,1.8,0c0.6,0,1.1,0.1,1.7,0.2
								c0.5,0.1,1.1,0.3,1.6,0.5C109.3,32.4,109.7,32.7,110.2,32.9z"/>
						</defs>
						<clipPath id="XMLID_19_">
							<use xlink:href="#XMLID_468_"  style="overflow:visible;"/>
						</clipPath>
						<g id="XMLID_464_" class="st6">
							<path id="XMLID_467_" class="st4" d="M110.2,32.9l13.9,8.4c-0.4-0.3-0.9-0.5-1.3-0.7c-0.5-0.2-0.9-0.3-1.4-0.4
								c-0.5-0.1-1-0.2-1.5-0.2c-0.5,0-1.1,0-1.7,0c0,0,0,0,0,0c0,0,0,0,0,0c0,0,0,0,0,0s0,0,0,0c-1.9,0.2-3.6,0.8-5,1.8
								c-1.4,1-2.6,2.2-3.5,3.8c-0.9,1.5-1.5,3.3-1.9,5.1c-0.4,1.9-0.6,3.9-0.5,5.9c0,1.1,0.2,2.1,0.3,3.1c0.2,1,0.4,2,0.8,2.9
								c0.3,0.9,0.7,1.8,1.2,2.6c0.5,0.8,1,1.6,1.6,2.2l-15.2-5.8c-0.6-0.7-1.2-1.5-1.7-2.4c-0.5-0.9-0.9-1.8-1.3-2.8
								c-0.3-1-0.6-2.1-0.8-3.2c-0.2-1.1-0.3-2.2-0.4-3.4c-0.1-2.2,0.1-4.4,0.6-6.5c0.4-2.1,1.2-4,2.1-5.6c1-1.7,2.2-3.1,3.8-4.1
								c1.5-1.1,3.3-1.8,5.4-2c0,0,0,0,0,0s0,0,0,0s0,0,0,0c0,0,0,0,0,0c0.6-0.1,1.2-0.1,1.8,0c0.6,0,1.1,0.1,1.7,0.2
								c0.5,0.1,1.1,0.3,1.6,0.5C109.3,32.4,109.7,32.7,110.2,32.9"/>
							<path id="XMLID_466_" class="st7" d="M95.9,61.7l15.2,5.8c0.2,0.2,0.3,0.3,0.5,0.5c0.2,0.2,0.3,0.3,0.5,0.5
								c0.2,0.1,0.3,0.3,0.5,0.4c0.2,0.1,0.4,0.3,0.5,0.4l-15-5.7c-0.2-0.1-0.4-0.3-0.6-0.4c-0.2-0.2-0.4-0.3-0.6-0.5
								c-0.2-0.2-0.4-0.3-0.5-0.5C96.2,62,96,61.9,95.9,61.7"/>
							<path id="XMLID_465_" class="st8" d="M98.1,63.6l15,5.7c0.2,0.1,0.3,0.2,0.5,0.3c0.2,0.1,0.3,0.2,0.5,0.3
								c0.2,0.1,0.3,0.2,0.5,0.2c0.2,0.1,0.3,0.1,0.5,0.2l-14.9-5.6c-0.2-0.1-0.4-0.1-0.6-0.2c-0.2-0.1-0.4-0.2-0.5-0.3
								c-0.2-0.1-0.4-0.2-0.5-0.3C98.4,63.9,98.2,63.7,98.1,63.6"/>
						</g>
					</g>
					<g id="XMLID_458_" class="st1">
						<defs>
							<path id="XMLID_462_" class="st1" d="M114.3,29.5l13.6,8.7c1.1,0.7,2.1,1.6,3,2.6c0.9,1,1.7,2.2,2.3,3.5
								c0.6,1.3,1.2,2.7,1.6,4.2c0.4,1.5,0.6,3.2,0.7,4.9l-13-7.3c-0.1-1.9-0.3-3.7-0.8-5.4c-0.4-1.7-1-3.2-1.7-4.6
								c-0.7-1.4-1.5-2.7-2.5-3.8C116.6,31.2,115.5,30.3,114.3,29.5z"/>
						</defs>
						<clipPath id="XMLID_26_">
							<use xlink:href="#XMLID_462_"  style="overflow:visible;"/>
						</clipPath>
						<g id="XMLID_459_" class="st9">
							<path id="XMLID_461_" class="st7" d="M114.3,29.5l13.6,8.7c0.3,0.2,0.5,0.3,0.7,0.5c0.2,0.2,0.5,0.4,0.7,0.6
								c0.2,0.2,0.5,0.4,0.7,0.6c0.2,0.2,0.4,0.4,0.6,0.6L117.3,32c-0.2-0.2-0.5-0.5-0.7-0.7c-0.2-0.2-0.5-0.4-0.7-0.7
								c-0.2-0.2-0.5-0.4-0.8-0.6C114.9,29.9,114.6,29.7,114.3,29.5"/>
							<path id="XMLID_460_" class="st4" d="M117.3,32l13.4,8.5c0.7,0.8,1.3,1.6,1.9,2.5c0.6,0.9,1.1,1.9,1.5,3
								c0.4,1.1,0.7,2.2,1,3.5c0.2,1.2,0.4,2.5,0.5,3.9l-13-7.3c-0.1-1.5-0.2-2.9-0.5-4.2c-0.3-1.3-0.6-2.6-1.1-3.8
								c-0.4-1.2-1-2.3-1.6-3.3C118.8,33.8,118.1,32.9,117.3,32"/>
						</g>
					</g>
					<g id="XMLID_454_" class="st1">
						<defs>
							<path id="XMLID_457_" class="st1" d="M112.9,74.2L97.8,69c0.5,0.2,1,0.3,1.6,0.5c0.5,0.1,1.1,0.2,1.7,0.3
								c0.6,0.1,1.1,0.1,1.7,0.1c0.6,0,1.2,0,1.8-0.1c0,0,0,0,0,0c0,0,0,0,0,0c0,0,0,0,0,0c0,0,0,0,0,0c2.5-0.2,5-0.9,7.2-2
								c2.2-1.1,4.2-2.7,5.8-4.7c1.6-2,2.9-4.4,3.7-7.3c0.8-2.8,1.2-6,1-9.6l13,7.3c0.2,3.3-0.2,6.2-0.9,8.8
								c-0.8,2.6-1.9,4.8-3.4,6.6c-1.5,1.8-3.3,3.3-5.3,4.3c-2,1-4.2,1.6-6.6,1.8c0,0,0,0,0,0c0,0,0,0,0,0c0,0,0,0,0,0s0,0,0,0
								c-0.6,0-1.1,0.1-1.7,0c-0.5,0-1.1-0.1-1.6-0.1c-0.5-0.1-1-0.2-1.5-0.3C113.9,74.5,113.4,74.3,112.9,74.2z"/>
						</defs>
						<clipPath id="XMLID_28_">
							<use xlink:href="#XMLID_457_"  style="overflow:visible;"/>
						</clipPath>
						<g id="XMLID_455_" class="st10">
							<path id="XMLID_456_" class="st4" d="M122.5,46.1l13,7.3c0.2,3.3-0.2,6.2-0.9,8.8c-0.8,2.6-1.9,4.8-3.4,6.6
								c-1.5,1.8-3.3,3.3-5.3,4.3c-2,1-4.2,1.6-6.6,1.8c0,0,0,0,0,0c0,0,0,0,0,0c0,0,0,0,0,0s0,0,0,0c-0.6,0-1.1,0.1-1.7,0
								c-0.5,0-1.1-0.1-1.6-0.1c-0.5-0.1-1-0.2-1.5-0.3c-0.5-0.1-1-0.3-1.5-0.4L97.8,69c0.5,0.2,1,0.3,1.6,0.5
								c0.5,0.1,1.1,0.2,1.7,0.3c0.6,0.1,1.1,0.1,1.7,0.1c0.6,0,1.2,0,1.8-0.1c0,0,0,0,0,0c0,0,0,0,0,0c0,0,0,0,0,0c0,0,0,0,0,0
								c2.5-0.2,5-0.9,7.2-2c2.2-1.1,4.2-2.7,5.8-4.7c1.6-2,2.9-4.4,3.7-7.3C122.3,52.9,122.7,49.7,122.5,46.1"/>
						</g>
					</g>
					<g id="XMLID_450_">
						<path id="XMLID_451_" class="st5" d="M122.5,46.1c0.2,3.6-0.2,6.8-1,9.6c-0.8,2.8-2.1,5.3-3.7,7.3c-1.6,2-3.6,3.6-5.8,4.7
							c-2.2,1.1-4.6,1.8-7.2,2c0,0,0,0,0,0c0,0,0,0,0,0c0,0,0,0,0,0c0,0,0,0,0,0c-2.6,0.2-5-0.1-7.2-1c-2.2-0.8-4.1-2.1-5.7-3.8
							c-1.6-1.7-2.9-3.8-3.8-6.2c-0.9-2.4-1.5-5.2-1.6-8.3c-0.1-3.2,0.3-6.2,1.1-8.9c0.8-2.7,2-5.1,3.5-7.1c1.5-2,3.4-3.7,5.6-4.9
							c2.1-1.2,4.6-2,7.2-2.3c0,0,0,0,0,0c0,0,0,0,0,0s0,0,0,0c0,0,0,0,0,0c2.7-0.3,5.1,0,7.3,0.8c2.2,0.8,4.2,2,5.8,3.7
							c1.6,1.7,3,3.7,3.9,6.2C121.8,40.3,122.4,43.1,122.5,46.1z M104.9,65.3c2-0.2,3.8-0.8,5.4-1.8c1.6-1,2.9-2.4,3.9-4.1
							c1-1.7,1.8-3.6,2.3-5.7c0.5-2.1,0.7-4.4,0.6-6.7c-0.1-2-0.4-4.1-1.1-6c-0.6-1.9-1.5-3.6-2.6-5.1c-1.1-1.5-2.5-2.6-4.1-3.4
							c-1.6-0.8-3.5-1.1-5.6-0.9c0,0,0,0,0,0c0,0,0,0,0,0s0,0,0,0s0,0,0,0c-2.1,0.2-3.9,0.9-5.4,2c-1.5,1.1-2.8,2.5-3.8,4.1
							c-1,1.7-1.7,3.6-2.1,5.6c-0.4,2.1-0.6,4.3-0.6,6.5c0.1,2.2,0.4,4.3,1,6.2c0.6,1.9,1.5,3.6,2.6,5.1c1.1,1.4,2.5,2.6,4,3.3
							C101,65.2,102.8,65.5,104.9,65.3C104.8,65.4,104.8,65.4,104.9,65.3C104.8,65.3,104.9,65.3,104.9,65.3
							C104.9,65.3,104.9,65.3,104.9,65.3C104.9,65.3,104.9,65.3,104.9,65.3"/>
					</g>
				</g>
				<g id="XMLID_100_" class="st1">
					<g id="XMLID_447_">
						<polygon id="XMLID_448_" class="st2" points="133.6,24.6 145.6,33.9 146.8,56.3 134.8,49.2 						"/>
					</g>
					<g id="XMLID_440_" class="st1">
						<defs>
							<path id="XMLID_446_" class="st1" d="M151.9,67c-3.9-2-7.7-4-11.6-6.1c-0.8-0.4-1.5-0.9-2.1-1.6c-0.6-0.7-1.2-1.5-1.7-2.5
								c-0.5-1-0.9-2.1-1.1-3.4c-0.3-1.3-0.5-2.7-0.6-4.3l12,7.1c0.1,1.5,0.3,2.8,0.5,3.9c0.3,1.2,0.6,2.2,1.1,3.1
								c0.4,0.9,0.9,1.6,1.5,2.2C150.5,66.2,151.2,66.7,151.9,67z"/>
						</defs>
						<clipPath id="XMLID_33_">
							<use xlink:href="#XMLID_446_"  style="overflow:visible;"/>
						</clipPath>
						<g id="XMLID_441_" class="st11">
							<path id="XMLID_444_" class="st4" d="M134.8,49.2l12,7.1c0.1,1.1,0.2,2.1,0.3,3c0.2,0.9,0.4,1.8,0.6,2.5
								c0.3,0.8,0.6,1.4,0.9,2.1c0.4,0.6,0.7,1.1,1.2,1.6l-11.7-6.2c-0.5-0.5-0.9-1.1-1.3-1.8c-0.4-0.7-0.7-1.4-1-2.3
								c-0.3-0.8-0.5-1.8-0.7-2.8C135,51.5,134.9,50.4,134.8,49.2"/>
							<path id="XMLID_443_" class="st7" d="M138.2,59.3l11.7,6.2c0.1,0.1,0.2,0.2,0.3,0.3c0.1,0.1,0.2,0.2,0.3,0.3
								c0.1,0.1,0.2,0.2,0.4,0.3c0.1,0.1,0.2,0.2,0.4,0.3l-11.6-6.1c-0.1-0.1-0.3-0.2-0.4-0.3c-0.1-0.1-0.3-0.2-0.4-0.3
								c-0.1-0.1-0.3-0.2-0.4-0.3C138.4,59.6,138.3,59.4,138.2,59.3"/>
							<path id="XMLID_442_" class="st8" d="M139.7,60.6l11.6,6.1c0,0,0.1,0.1,0.1,0.1c0,0,0.1,0.1,0.1,0.1s0.1,0.1,0.1,0.1
								c0,0,0.1,0.1,0.1,0.1L140.3,61c-0.1,0-0.1-0.1-0.2-0.1c-0.1,0-0.1-0.1-0.2-0.1c-0.1,0-0.1-0.1-0.2-0.1
								C139.8,60.7,139.7,60.6,139.7,60.6"/>
						</g>
					</g>
					<g id="XMLID_438_">
						<polygon id="XMLID_439_" class="st2" points="158.7,21.8 168.6,31.5 170,53.9 160.2,46.4 						"/>
					</g>
					<g id="XMLID_104_" class="st1">
						<defs>
							<path id="XMLID_437_" class="st1" d="M149.1,70.8l-11.8-5.7c0.6,0.3,1.2,0.5,1.8,0.7c0.6,0.2,1.2,0.3,1.9,0.4
								c0.7,0.1,1.3,0.2,2,0.2c0.7,0,1.4,0,2.1-0.1c0,0,0,0,0,0s0,0,0,0c0,0,0,0,0,0c0,0,0,0,0,0c2.3-0.2,4.4-0.7,6.3-1.6
								c1.9-0.9,3.5-2.1,4.9-3.7c1.3-1.6,2.4-3.6,3-6.1c0.6-2.4,0.9-5.3,0.7-8.5l9.8,7.4c0.2,3,0,5.6-0.6,7.8
								c-0.6,2.2-1.5,4-2.8,5.5c-1.2,1.5-2.7,2.6-4.5,3.4c-1.7,0.8-3.7,1.3-5.7,1.4c0,0,0,0,0,0c0,0,0,0,0,0s0,0,0,0c0,0,0,0,0,0
								c-0.7,0-1.3,0.1-1.9,0c-0.6,0-1.2-0.1-1.8-0.2c-0.6-0.1-1.2-0.2-1.7-0.4C150.2,71.3,149.6,71.1,149.1,70.8z"/>
						</defs>
						<clipPath id="XMLID_34_">
							<use xlink:href="#XMLID_437_"  style="overflow:visible;"/>
						</clipPath>
						<g id="XMLID_105_" class="st12">
							<path id="XMLID_130_" class="st4" d="M160.2,46.4l9.8,7.4c0.2,3,0,5.6-0.6,7.8c-0.6,2.2-1.5,4-2.8,5.5
								c-1.2,1.5-2.7,2.6-4.5,3.4c-1.7,0.8-3.7,1.3-5.7,1.4c0,0,0,0,0,0c0,0,0,0,0,0s0,0,0,0c0,0,0,0,0,0c-0.7,0-1.3,0.1-1.9,0
								c-0.6,0-1.2-0.1-1.8-0.2c-0.6-0.1-1.2-0.2-1.7-0.4c-0.6-0.2-1.1-0.4-1.6-0.6l-11.8-5.7c0.6,0.3,1.2,0.5,1.8,0.7
								c0.6,0.2,1.2,0.3,1.9,0.4c0.7,0.1,1.3,0.2,2,0.2c0.7,0,1.4,0,2.1-0.1c0,0,0,0,0,0s0,0,0,0c0,0,0,0,0,0c0,0,0,0,0,0
								c2.3-0.2,4.4-0.7,6.3-1.6c1.9-0.9,3.5-2.1,4.9-3.7c1.3-1.6,2.4-3.6,3-6.1C160.1,52.6,160.4,49.7,160.2,46.4"/>
						</g>
					</g>
					<g id="XMLID_102_">
						<path id="XMLID_103_" class="st5" d="M158.7,21.8l1.5,24.6c0.2,3.3-0.1,6.1-0.7,8.5c-0.7,2.4-1.7,4.4-3,6.1
							c-1.3,1.6-3,2.9-4.9,3.7c-1.9,0.9-4,1.4-6.3,1.6c0,0,0,0,0,0c0,0,0,0,0,0c0,0,0,0,0,0s0,0,0,0c-2.1,0.2-4.1,0-5.9-0.5
							c-1.8-0.5-3.4-1.4-4.8-2.8c-1.4-1.3-2.5-3.1-3.3-5.3c-0.8-2.2-1.4-4.9-1.5-8.1l-1.2-24.4l5.3-0.6l1.2,24.6
							c0.1,2.3,0.5,4.3,1,6c0.6,1.7,1.3,3,2.2,4c0.9,1,2,1.7,3.2,2.2c1.2,0.4,2.5,0.6,3.9,0.5c1.6-0.1,3-0.5,4.2-1.2
							c1.2-0.6,2.3-1.6,3.1-2.8c0.8-1.2,1.5-2.7,1.8-4.4c0.4-1.8,0.5-3.8,0.4-6.2l-1.4-24.9L158.7,21.8z"/>
					</g>
				</g>
			</g>
		</g>
		<g id="XMLID_404_">
			<g id="XMLID_40_">
				<g id="XMLID_159_" class="st1">
					<g id="XMLID_389_" class="st1">
						<defs>
							<path id="XMLID_419_" class="st1" d="M272.2,42.5l11.6-9.8c0.3-0.3,0.7-0.5,1.1-0.7c0.4-0.2,0.9-0.4,1.3-0.5
								c0.5-0.1,1-0.2,1.6-0.2c0.6,0,1.2,0,1.9,0.1c0,0,0,0,0,0c0,0,0,0,0,0c0,0,0,0,0,0c0,0,0,0,0,0c0.9,0.1,1.7,0.3,2.5,0.5
								c0.8,0.2,1.4,0.5,2.1,0.7c0.6,0.3,1.2,0.5,1.6,0.8c0.5,0.3,0.9,0.5,1.2,0.7l-12.7,9.7c-0.3-0.2-0.6-0.4-1.1-0.7
								c-0.4-0.2-0.9-0.5-1.5-0.7c-0.6-0.2-1.2-0.5-1.9-0.7c-0.7-0.2-1.4-0.3-2.2-0.4c0,0,0,0,0,0c0,0,0,0,0,0c0,0,0,0,0,0
								c0,0,0,0,0,0c-0.6-0.1-1.2-0.1-1.8-0.1c-0.5,0-1,0.1-1.5,0.2c-0.5,0.1-0.9,0.3-1.2,0.5C272.8,42,272.4,42.2,272.2,42.5z"/>
						</defs>
						<clipPath id="XMLID_35_">
							<use xlink:href="#XMLID_419_"  style="overflow:visible;"/>
						</clipPath>
						<g id="XMLID_391_" class="st13">
							<path id="XMLID_418_" class="st14" d="M297.1,34l-12.7,9.7c-0.3-0.2-0.6-0.4-1.1-0.7c-0.4-0.2-0.9-0.5-1.5-0.7
								c-0.6-0.2-1.2-0.5-1.9-0.7c-0.7-0.2-1.4-0.3-2.2-0.4c0,0,0,0,0,0c0,0,0,0,0,0c0,0,0,0,0,0c0,0,0,0,0,0
								c-0.6-0.1-1.2-0.1-1.8-0.1c-0.5,0-1,0.1-1.5,0.2c-0.5,0.1-0.9,0.3-1.2,0.5c-0.4,0.2-0.7,0.4-1,0.7l11.6-9.8
								c0.3-0.3,0.7-0.5,1.1-0.7c0.4-0.2,0.9-0.4,1.3-0.5c0.5-0.1,1-0.2,1.6-0.2c0.6,0,1.2,0,1.9,0.1c0,0,0,0,0,0c0,0,0,0,0,0
								c0,0,0,0,0,0c0,0,0,0,0,0c0.9,0.1,1.7,0.3,2.5,0.5c0.8,0.2,1.4,0.5,2.1,0.7c0.6,0.3,1.2,0.5,1.6,0.8
								C296.4,33.6,296.8,33.8,297.1,34"/>
						</g>
					</g>
					<g id="XMLID_172_" class="st1">
						<defs>
							<path id="XMLID_175_" class="st1" d="M268.5,39.8l11.2-10.1c-0.5,0.4-0.9,0.9-1.2,1.4c-0.4,0.5-0.7,1-0.9,1.6
								c-0.3,0.6-0.5,1.2-0.6,1.8c-0.2,0.6-0.3,1.3-0.3,2c-0.1,1.4,0.1,2.7,0.5,3.9c0.4,1.2,1.1,2.3,1.9,3.4c0.9,1,1.9,2,3.2,2.9
								c1.3,0.9,2.7,1.7,4.3,2.5l-11.9,8.4c-1.5-0.7-2.8-1.4-3.9-2.2c-1.2-0.8-2.1-1.7-2.9-2.6c-0.8-0.9-1.4-2-1.8-3.1
								c-0.4-1.1-0.5-2.3-0.4-3.6c0-0.6,0.1-1.2,0.3-1.8c0.1-0.6,0.3-1.1,0.6-1.6c0.2-0.5,0.5-1,0.9-1.4
								C267.7,40.6,268.1,40.2,268.5,39.8z"/>
						</defs>
						<clipPath id="XMLID_36_">
							<use xlink:href="#XMLID_175_"  style="overflow:visible;"/>
						</clipPath>
						<g id="XMLID_173_" class="st15">
							<path id="XMLID_174_" class="st14" d="M286.6,49.1l-11.9,8.4c-1.5-0.7-2.8-1.4-3.9-2.2c-1.2-0.8-2.1-1.7-2.9-2.6
								c-0.8-0.9-1.4-2-1.8-3.1c-0.4-1.1-0.5-2.3-0.4-3.6c0-0.6,0.1-1.2,0.3-1.8c0.1-0.6,0.3-1.1,0.6-1.6c0.2-0.5,0.5-1,0.9-1.4
								c0.3-0.4,0.7-0.9,1.1-1.2l11.2-10.1c-0.5,0.4-0.9,0.9-1.2,1.4c-0.4,0.5-0.7,1-0.9,1.6c-0.3,0.6-0.5,1.2-0.6,1.8
								c-0.2,0.6-0.3,1.3-0.3,2c-0.1,1.4,0.1,2.7,0.5,3.9c0.4,1.2,1.1,2.3,1.9,3.4c0.9,1,1.9,2,3.2,2.9
								C283.5,47.5,285,48.3,286.6,49.1"/>
						</g>
					</g>
					<g id="XMLID_168_" class="st1">
						<defs>
							<path id="XMLID_171_" class="st1" d="M290.7,63.1l-12.3,7.2c0.4-0.2,0.8-0.5,1.1-0.8c0.3-0.3,0.6-0.7,0.8-1.1
								c0.2-0.4,0.4-0.8,0.5-1.3c0.1-0.5,0.2-1,0.2-1.5c0-0.9,0-1.7-0.2-2.4c-0.2-0.7-0.6-1.4-1.1-2c-0.5-0.6-1.2-1.3-2-1.9
								c-0.8-0.6-1.9-1.2-3.1-1.8l11.9-8.4c1.3,0.7,2.4,1.3,3.4,2c0.9,0.7,1.7,1.3,2.2,2c0.6,0.7,1,1.4,1.2,2.2
								c0.2,0.8,0.3,1.7,0.3,2.6c0,0.6-0.1,1.1-0.3,1.6c-0.1,0.5-0.3,1-0.6,1.4c-0.3,0.4-0.6,0.8-0.9,1.2
								C291.6,62.5,291.2,62.8,290.7,63.1z"/>
						</defs>
						<clipPath id="XMLID_37_">
							<use xlink:href="#XMLID_171_"  style="overflow:visible;"/>
						</clipPath>
						<g id="XMLID_169_" class="st16">
							<path id="XMLID_170_" class="st14" d="M290.7,63.1l-12.3,7.2c0.4-0.2,0.8-0.5,1.1-0.8c0.3-0.3,0.6-0.7,0.8-1.1
								c0.2-0.4,0.4-0.8,0.5-1.3c0.1-0.5,0.2-1,0.2-1.5c0-0.9,0-1.7-0.2-2.4c-0.2-0.7-0.6-1.4-1.1-2c-0.5-0.6-1.2-1.3-2-1.9
								c-0.8-0.6-1.9-1.2-3.1-1.8l11.9-8.4c1.3,0.7,2.4,1.3,3.4,2c0.9,0.7,1.7,1.3,2.2,2c0.6,0.7,1,1.4,1.2,2.2
								c0.2,0.8,0.3,1.7,0.3,2.6c0,0.6-0.1,1.1-0.3,1.6c-0.1,0.5-0.3,1-0.6,1.4c-0.3,0.4-0.6,0.8-0.9,1.2
								C291.6,62.5,291.2,62.8,290.7,63.1"/>
						</g>
					</g>
					<g id="XMLID_166_">
						<polygon id="XMLID_167_" class="st17" points="274.1,64.7 263.2,71.8 264.7,67.9 275.7,60.4 						"/>
					</g>
					<g id="XMLID_162_" class="st1">
						<defs>
							<path id="XMLID_165_" class="st1" d="M293.6,66.9L281,73.8c-0.5,0.3-1.1,0.5-1.7,0.8c-0.6,0.2-1.3,0.4-2,0.5
								c-0.7,0.1-1.5,0.2-2.3,0.2c-0.8,0-1.6,0-2.5-0.1c0,0,0,0,0,0c0,0,0,0,0,0s0,0,0,0c0,0,0,0,0,0c-0.9-0.1-1.8-0.2-2.7-0.5
								c-0.9-0.2-1.7-0.5-2.5-0.8c-0.8-0.3-1.6-0.6-2.2-1c-0.7-0.4-1.3-0.7-1.7-1.1l10.9-7.1c0.5,0.4,1.2,0.8,1.9,1.2
								c0.7,0.4,1.6,0.8,2.5,1.1c0.9,0.3,1.8,0.6,2.8,0.8c1,0.2,1.9,0.4,2.9,0.5c0,0,0,0,0,0s0,0,0,0c0,0,0,0,0,0c0,0,0,0,0,0
								c1,0.1,1.9,0.1,2.8,0.1c0.9,0,1.7-0.1,2.5-0.2c0.8-0.1,1.5-0.3,2.2-0.5C292.4,67.5,293,67.3,293.6,66.9z"/>
						</defs>
						<clipPath id="XMLID_38_">
							<use xlink:href="#XMLID_165_"  style="overflow:visible;"/>
						</clipPath>
						<g id="XMLID_163_" class="st18">
							<path id="XMLID_164_" class="st14" d="M293.6,66.9L281,73.8c-0.5,0.3-1.1,0.5-1.7,0.8c-0.6,0.2-1.3,0.4-2,0.5
								c-0.7,0.1-1.5,0.2-2.3,0.2c-0.8,0-1.6,0-2.5-0.1c0,0,0,0,0,0c0,0,0,0,0,0s0,0,0,0c0,0,0,0,0,0c-0.9-0.1-1.8-0.2-2.7-0.5
								c-0.9-0.2-1.7-0.5-2.5-0.8c-0.8-0.3-1.6-0.6-2.2-1c-0.7-0.4-1.3-0.7-1.7-1.1l10.9-7.1c0.5,0.4,1.2,0.8,1.9,1.2
								c0.7,0.4,1.6,0.8,2.5,1.1c0.9,0.3,1.8,0.6,2.8,0.8c1,0.2,1.9,0.4,2.9,0.5c0,0,0,0,0,0s0,0,0,0c0,0,0,0,0,0c0,0,0,0,0,0
								c1,0.1,1.9,0.1,2.8,0.1c0.9,0,1.7-0.1,2.5-0.2c0.8-0.1,1.5-0.3,2.2-0.5C292.4,67.5,293,67.3,293.6,66.9"/>
						</g>
					</g>
					<g id="XMLID_160_">
						<path id="XMLID_161_" class="st19" d="M290.3,27c1,0.1,1.9,0.3,2.8,0.5c0.8,0.2,1.6,0.4,2.3,0.7c0.7,0.3,1.3,0.5,1.9,0.8
							c0.6,0.3,1.1,0.6,1.5,0.9l-1.6,4c-0.3-0.2-0.7-0.5-1.2-0.7c-0.5-0.3-1-0.5-1.6-0.8c-0.6-0.3-1.3-0.5-2.1-0.7
							c-0.8-0.2-1.6-0.4-2.5-0.5c0,0,0,0,0,0c0,0,0,0,0,0c0,0,0,0,0,0c0,0,0,0,0,0c-1.4-0.2-2.5-0.1-3.5,0.2c-1,0.2-1.8,0.6-2.4,1.2
							c-0.6,0.5-1.1,1.1-1.4,1.8c-0.3,0.7-0.5,1.4-0.5,2.1c-0.1,0.9,0.1,1.8,0.3,2.6c0.3,0.8,0.7,1.5,1.3,2.2c0.6,0.7,1.4,1.3,2.4,2
							c1,0.6,2.1,1.3,3.5,2c1.7,0.8,3.1,1.7,4.3,2.6c1.2,0.9,2.2,1.9,3,2.9c0.8,1,1.4,2.2,1.8,3.4c0.4,1.2,0.5,2.6,0.4,4.1
							c-0.1,1.6-0.4,3.1-1.1,4.4c-0.6,1.3-1.6,2.5-2.8,3.5c-1.2,1-2.7,1.7-4.5,2.1c-1.8,0.4-3.9,0.6-6.3,0.3c0,0,0,0,0,0
							c0,0,0,0,0,0c0,0,0,0,0,0s0,0,0,0c-1-0.1-1.9-0.3-2.9-0.5c-1-0.2-1.9-0.5-2.8-0.8c-0.9-0.3-1.7-0.7-2.5-1.1
							c-0.7-0.4-1.4-0.8-1.9-1.2l1.6-4.3c0.6,0.4,1.2,0.8,1.9,1.2c0.7,0.4,1.4,0.8,2.2,1.1c0.8,0.3,1.6,0.6,2.4,0.8
							c0.8,0.2,1.7,0.4,2.6,0.5c0,0,0,0,0,0s0,0,0,0s0,0,0,0c0,0,0,0,0,0c1.3,0.1,2.5,0.1,3.6-0.1c1.1-0.2,2-0.6,2.7-1.2
							c0.7-0.5,1.3-1.2,1.8-2c0.4-0.8,0.7-1.7,0.7-2.8c0-1,0-1.8-0.3-2.6c-0.2-0.8-0.6-1.5-1.2-2.2c-0.6-0.7-1.3-1.4-2.2-2
							c-0.9-0.7-2-1.3-3.4-2c-1.6-0.8-3.1-1.6-4.3-2.5c-1.3-0.9-2.3-1.8-3.2-2.9c-0.9-1-1.5-2.1-1.9-3.4c-0.4-1.2-0.6-2.5-0.5-3.9
							c0.1-1.6,0.5-3,1.2-4.2c0.7-1.2,1.6-2.3,2.8-3.1c1.2-0.8,2.6-1.4,4.2-1.8c1.6-0.3,3.4-0.4,5.3-0.2c0,0,0,0,0,0
							S290.2,27,290.3,27C290.2,27,290.2,27,290.3,27C290.3,27,290.3,27,290.3,27z"/>
					</g>
				</g>
				<g id="XMLID_88_" class="st1">
					<g id="XMLID_157_">
						<polygon id="XMLID_158_" class="st17" points="262.6,48.7 252.8,57.2 254.3,35.2 264.1,24.6 						"/>
					</g>
					<g id="XMLID_153_" class="st1">
						<defs>
							<path id="XMLID_156_" class="st1" d="M258.4,59.1l-9.5,7.6c0.5-0.4,1-0.9,1.5-1.6c0.4-0.6,0.8-1.3,1.1-2.1
								c0.3-0.8,0.6-1.7,0.8-2.6c0.2-1,0.4-2,0.4-3.2l9.8-8.5c-0.1,1.3-0.2,2.5-0.5,3.5c-0.2,1.1-0.5,2-0.9,2.9
								c-0.4,0.9-0.8,1.6-1.2,2.3C259.5,58,259,58.6,258.4,59.1z"/>
						</defs>
						<clipPath id="XMLID_45_">
							<use xlink:href="#XMLID_156_"  style="overflow:visible;"/>
						</clipPath>
						<g id="XMLID_154_" class="st20">
							<path id="XMLID_155_" class="st14" d="M258.4,59.1l-9.5,7.6c0.5-0.4,1-0.9,1.5-1.6c0.4-0.6,0.8-1.3,1.1-2.1
								c0.3-0.8,0.6-1.7,0.8-2.6c0.2-1,0.4-2,0.4-3.2l9.8-8.5c-0.1,1.3-0.2,2.5-0.5,3.5c-0.2,1.1-0.5,2-0.9,2.9
								c-0.4,0.9-0.8,1.6-1.2,2.3C259.5,58,259,58.6,258.4,59.1"/>
						</g>
					</g>
					<g id="XMLID_151_">
						<polygon id="XMLID_152_" class="st17" points="237.5,45.8 229.9,54.7 231.6,32.7 239.3,21.7 						"/>
					</g>
					<g id="XMLID_147_" class="st1">
						<defs>
							<path id="XMLID_150_" class="st1" d="M261.9,62.7c-3.3,2.4-6.5,4.9-9.8,7.3c-0.7,0.5-1.4,0.9-2.1,1.2
								c-0.7,0.3-1.5,0.6-2.4,0.8c-0.8,0.2-1.7,0.3-2.6,0.3c-0.9,0-1.8,0-2.7-0.1c0,0,0,0,0,0c0,0,0,0,0,0c0,0,0,0,0,0c0,0,0,0,0,0
								c-1.9-0.2-3.7-0.7-5.3-1.4c-1.6-0.8-3-1.8-4.1-3.3c-1.1-1.4-2-3.2-2.5-5.3c-0.5-2.1-0.7-4.6-0.4-7.6l7.6-8.9
								c-0.2,3.2,0,5.9,0.5,8.3c0.6,2.3,1.5,4.3,2.7,5.8c1.2,1.6,2.7,2.7,4.5,3.6c1.7,0.9,3.7,1.4,5.8,1.6c0,0,0,0,0,0c0,0,0,0,0,0
								c0,0,0,0,0,0c0,0,0,0,0,0c1,0.1,2,0.1,3,0.1c1,0,1.9-0.2,2.8-0.4c0.9-0.2,1.8-0.5,2.6-0.8C260.4,63.7,261.1,63.2,261.9,62.7z
								"/>
						</defs>
						<clipPath id="XMLID_46_">
							<use xlink:href="#XMLID_150_"  style="overflow:visible;"/>
						</clipPath>
						<g id="XMLID_148_" class="st21">
							<path id="XMLID_149_" class="st14" d="M261.9,62.7l-9.8,7.3c-0.7,0.5-1.4,0.9-2.1,1.2c-0.7,0.3-1.5,0.6-2.4,0.8
								c-0.8,0.2-1.7,0.3-2.6,0.3c-0.9,0-1.8,0-2.7-0.1c0,0,0,0,0,0c0,0,0,0,0,0c0,0,0,0,0,0c0,0,0,0,0,0c-1.9-0.2-3.7-0.7-5.3-1.4
								c-1.6-0.8-3-1.8-4.1-3.3c-1.1-1.4-2-3.2-2.5-5.3c-0.5-2.1-0.7-4.6-0.4-7.6l7.6-8.9c-0.2,3.2,0,5.9,0.5,8.3
								c0.6,2.3,1.5,4.3,2.7,5.8c1.2,1.6,2.7,2.7,4.5,3.6c1.7,0.9,3.7,1.4,5.8,1.6c0,0,0,0,0,0c0,0,0,0,0,0c0,0,0,0,0,0c0,0,0,0,0,0
								c1,0.1,2,0.1,3,0.1c1,0,1.9-0.2,2.8-0.4c0.9-0.2,1.8-0.5,2.6-0.8C260.4,63.7,261.1,63.2,261.9,62.7"/>
						</g>
					</g>
					<g id="XMLID_90_">
						<path id="XMLID_91_" class="st19" d="M269.4,25.2l-1.5,23.6c-0.2,3.1-0.8,5.8-1.7,8c-0.9,2.2-2.1,3.9-3.6,5.2
							c-1.5,1.3-3.2,2.2-5.2,2.7c-1.9,0.5-4.1,0.6-6.3,0.4c0,0,0,0,0,0c0,0,0,0,0,0c0,0,0,0,0,0c0,0,0,0,0,0
							c-2.1-0.2-4.1-0.7-5.8-1.6c-1.7-0.9-3.3-2-4.5-3.6c-1.2-1.6-2.2-3.5-2.7-5.8c-0.6-2.3-0.8-5.1-0.5-8.3l1.8-24.1l5.4,0.6
							l-1.8,24.2c-0.2,2.3-0.1,4.3,0.3,6c0.4,1.7,0.9,3.2,1.7,4.3c0.8,1.2,1.8,2.1,2.9,2.7c1.1,0.6,2.4,1,3.8,1.2
							c1.6,0.2,3,0,4.3-0.4c1.3-0.4,2.4-1.1,3.3-2.1c0.9-1,1.7-2.3,2.3-3.9c0.6-1.6,0.9-3.5,1.1-5.8l1.6-24L269.4,25.2z"/>
					</g>
				</g>
			</g>
		</g>
		<g id="XMLID_390_">
			<g id="XMLID_43_">
				<g id="XMLID_72_" class="st1">
					<g id="XMLID_84_">
						<polygon id="XMLID_85_" class="st22" points="224.7,46.5 223.2,54.7 210.5,54.7 210.7,46.6 						"/>
					</g>
					<g id="XMLID_82_">
						<polygon id="XMLID_83_" class="st22" points="206.7,46.7 206.9,54.8 194.1,54.9 192.6,46.8 						"/>
					</g>
					<g id="XMLID_80_">
						<polygon id="XMLID_81_" class="st22" points="210.8,61.2 210.6,68 207,68 206.8,61.2 						"/>
					</g>
					<g id="XMLID_74_">
						<polygon id="XMLID_79_" class="st23" points="210.5,28.7 210.6,43 224.7,42.9 224.7,46.5 210.7,46.6 210.8,61.2 206.8,61.2 
							206.7,46.7 192.6,46.8 192.6,43.1 206.7,43 206.6,28.7 						"/>
					</g>
				</g>
			</g>
		</g>
	</g>
	<g id="XMLID_304_">
		<path id="XMLID_387_" class="st24" d="M324.2,149h9.6c0,0,0.1,0,0.1-0.1c0,0,0,0,0,0.1h11.5c0.4-0.7,0.6-1.4,0.6-2.2
			c0-1.6-1-3.1-2.5-4c1.3-0.7,2.1-1.8,2.1-3.1c0-1.9-1.8-3.5-4.1-3.7c-0.5-3.2-3.1-5.7-6.3-5.7c-2.8,0-5.1,1.9-6,4.5
			c-0.4-0.1-0.7-0.2-1.1-0.2c-1.8,0-3.2,1.1-3.2,2.5c0,0.5,0.2,0.9,0.4,1.2c-2.6,1-4.4,3.2-4.4,5.6
			C321.1,146.1,322.3,147.9,324.2,149z"/>
		<path id="XMLID_386_" class="st25" d="M224.3,149h9.6c0,0,0.1,0,0.1-0.1c0,0,0,0,0,0.1h11.5c0.4-0.7,0.6-1.4,0.6-2.2
			c0-1.6-1-3.1-2.5-4c1.3-0.7,2.1-1.8,2.1-3.1c0-1.9-1.8-3.5-4.1-3.7c-0.5-3.2-3.1-5.7-6.3-5.7c-2.8,0-5.1,1.9-6,4.5
			c-0.4-0.1-0.7-0.2-1.1-0.2c-1.8,0-3.2,1.1-3.2,2.5c0,0.5,0.2,0.9,0.4,1.2c-2.6,1-4.4,3.2-4.4,5.6
			C221.2,146.1,222.4,147.9,224.3,149z"/>
		<path id="XMLID_385_" class="st26" d="M256.8,82.9c0-1.9-2.5-2.8-5.5-2.8c-3,0-5.5,0.9-5.5,2.8l-2.1,66.2l7.6,0.1l7.6-0.1
			L256.8,82.9z"/>
		<path id="XMLID_384_" class="st27" d="M254.5,83.8c0-1.9-1.8-2.7-4-2.7s-4,0.8-4,2.7l-1.6,65.3l5.6,0.1l5.6-0.1L254.5,83.8z"/>
		<ellipse id="XMLID_383_" class="st28" cx="247.3" cy="104.3" rx="0.4" ry="20"/>
		<path id="XMLID_382_" class="st29" d="M272.8,87.5c0-1.8-2.3-2.5-5.1-2.5c-2.8,0-5.1,0.8-5.1,2.5l-2,61.6l7.1,0.1l7.1-0.1
			L272.8,87.5z"/>
		<path id="XMLID_381_" class="st30" d="M270.6,88.4c0-1.8-1.6-2.5-3.6-2.5c-2,0-3.6,0.7-3.6,2.5l-1.4,60.7l5.1,0.1l5.1-0.1
			L270.6,88.4z"/>
		<path id="XMLID_380_" class="st31" d="M287.4,92.1c0-1.6-2.1-2.3-4.7-2.3s-4.7,0.7-4.7,2.3l-1.8,57l6.5,0.1l6.5-0.1L287.4,92.1z"
			/>
		<path id="XMLID_379_" class="st32" d="M285.2,93c0-1.6-1.5-2.3-3.4-2.3s-3.4,0.6-3.4,2.3l-1.3,56.1l4.6,0.1l4.6-0.1L285.2,93z"/>
		<polygon id="XMLID_378_" class="st33" points="293.3,107.3 279.7,109.7 293.3,120.7 		"/>
		<ellipse id="XMLID_377_" class="st28" cx="264" cy="109.1" rx="0.4" ry="20"/>
		<ellipse id="XMLID_376_" class="st28" cx="279.3" cy="113.3" rx="0.4" ry="20"/>
		<path id="XMLID_375_" class="st34" d="M312.8,113.3"/>
		<polygon id="XMLID_374_" class="st33" points="313.3,112.8 300.7,114.5 313.3,125.9 		"/>
		<polygon id="XMLID_373_" class="st33" points="313.2,113.9 327.2,130.3 327.2,131.2 328.1,131.2 328.1,130 313.3,112.8 		"/>
		<polygon id="XMLID_372_" class="st35" points="232.4,148.9 270.3,149 270.3,102 232.4,110.4 		"/>
		<polygon id="XMLID_371_" class="st36" points="232.4,148.9 243.8,149.1 263.6,103.5 232.4,110.4 		"/>
		<polygon id="XMLID_370_" class="st33" points="293.3,107.3 313.3,125.6 313.3,126.5 292.9,107.8 		"/>
		<polygon id="XMLID_369_" class="st33" points="293.3,120.8 270.3,102 232.4,110.4 232.4,111.2 231.3,110.4 231.3,109.7 
			270.3,100.7 293.3,119.6 		"/>
		<polygon id="XMLID_368_" class="st37" points="270.3,149 270.3,102 292.9,120.5 292.9,107.8 312.8,125.9 312.8,113.3 327.2,130.2 
			327.2,149 		"/>
		<polygon id="XMLID_367_" class="st33" points="303.3,149 278.3,149 278.3,121.6 303.3,127.5 		"/>
		<polygon id="XMLID_366_" class="st35" points="301.2,149 278.3,149 278.3,122.9 301.2,128.5 		"/>
		<polygon id="XMLID_365_" class="st38" points="319.4,131.2 315,130.2 315,130.2 306.3,128.2 306.3,145.6 310.7,145.8 319.4,146.1 
			323.8,146.3 323.8,132.3 		"/>
		<g id="XMLID_352_">
			<polygon id="XMLID_364_" class="st38" points="301.2,134.9 278.4,131.5 278.3,131.9 301.2,135.3 			"/>
			<polygon id="XMLID_363_" class="st38" points="301.2,131.8 278.4,127.7 278.3,128.1 301.2,132.3 			"/>
			<polygon id="XMLID_362_" class="st38" points="301.2,129.1 278.4,124.3 278.3,124.7 301.2,129.5 			"/>
			<polygon id="XMLID_361_" class="st38" points="301.2,130.4 278.4,125.9 278.3,126.3 301.2,130.8 			"/>
			<polygon id="XMLID_360_" class="st38" points="301.2,136.5 278.4,133.5 278.3,133.9 301.2,136.9 			"/>
			<polygon id="XMLID_359_" class="st38" points="301.2,133.2 278.4,129.4 278.3,129.8 301.2,133.6 			"/>
			<polygon id="XMLID_358_" class="st38" points="301.2,146.2 278.3,145.6 278.3,146 301.2,146.7 			"/>
			<polygon id="XMLID_357_" class="st38" points="301.2,144.3 278.3,143.2 278.3,143.6 301.2,144.7 			"/>
			
				<rect id="XMLID_356_" x="278.3" y="148" transform="matrix(1 7.670249e-003 -7.670249e-003 1 1.1453 -2.2184)" class="st38" width="22.9" height="0.4"/>
			<polygon id="XMLID_355_" class="st38" points="301.2,142.3 278.3,140.7 278.3,141.1 301.2,142.7 			"/>
			<polygon id="XMLID_354_" class="st38" points="301.2,138.3 278.4,135.7 278.3,136.2 301.2,138.7 			"/>
			<polygon id="XMLID_353_" class="st38" points="301.2,140.3 278.3,138.3 278.3,138.7 301.2,140.7 			"/>
		</g>
		<path id="XMLID_351_" class="st37" d="M251.7,114.9c0,0.4,0.4,0.8,1,0.8c0.5,0,1-0.3,1-0.8c0,0,0-0.1,0-0.1s0-1.4,2.6-1.5v-1.6
			C256.1,111.6,251.5,112,251.7,114.9z"/>
		<path id="XMLID_350_" class="st39" d="M256.1,111.6c0,0-0.5,0.1-1.2,0.2c-0.1,0.2-0.2,0.5-0.2,0.8c0,0.3,0.1,0.6,0.2,0.8
			c0.3-0.1,0.7-0.2,1.2-0.2V111.6z"/>
		<polygon id="XMLID_349_" class="st36" points="265.4,117 257.1,118.4 255.3,115.6 263.7,115 263.7,109.4 266.9,114.8 		"/>
		<polygon id="XMLID_348_" class="st37" points="266.9,114.8 258.1,116.3 255.3,115.6 255.3,109.2 264.3,107.3 266.9,108.1 		"/>
		<polygon id="XMLID_347_" class="st39" points="266.9,114.8 258.1,116.3 255.3,115.6 264.3,113.9 264.3,107.3 266.9,108.1 		"/>
		<line id="XMLID_346_" class="st40" x1="258.7" y1="109.5" x2="263.3" y2="108.6"/>
		<line id="XMLID_345_" class="st40" x1="258.7" y1="110.8" x2="263.3" y2="109.9"/>
		<line id="XMLID_344_" class="st40" x1="258.7" y1="112" x2="263.2" y2="111.1"/>
		<line id="XMLID_343_" class="st40" x1="258.7" y1="113.1" x2="263.3" y2="112.3"/>
		<polygon id="XMLID_342_" class="st39" points="278.3,149 278.3,122.9 295.1,127 		"/>
		<polygon id="XMLID_341_" class="st39" points="306.3,144 308.5,140.8 306.3,140.5 		"/>
		<line id="XMLID_340_" class="st41" x1="367.4" y1="149" x2="61.6" y2="149"/>
		<polygon id="XMLID_339_" class="st39" points="306.3,136.9 308.5,134.3 306.3,133.9 		"/>
		<polygon id="XMLID_338_" class="st39" points="306.3,130.8 308.1,128.8 306.3,128.4 		"/>
		<polygon id="XMLID_337_" class="st39" points="311.2,144.4 313.3,141.2 311.2,141 		"/>
		<polygon id="XMLID_336_" class="st39" points="311.2,137.7 313.3,135 311.2,134.6 		"/>
		<polygon id="XMLID_335_" class="st39" points="311.2,131.9 312.9,129.9 311.2,129.5 		"/>
		<polygon id="XMLID_334_" class="st39" points="315.7,144.9 317.9,141.7 315.7,141.5 		"/>
		<polygon id="XMLID_333_" class="st39" points="320.1,145.3 322.3,142.1 320.1,141.9 		"/>
		<polygon id="XMLID_332_" class="st39" points="315.7,138.6 317.9,135.9 315.7,135.5 		"/>
		<polygon id="XMLID_331_" class="st39" points="315.7,133 317.4,131 315.7,130.6 		"/>
		<path id="XMLID_323_" class="st33" d="M315,130.2l-8.7-2v0.2l3.8,0.9v4.4l-3.8-0.7v0.9l3.8,0.7v5.5l-3.8-0.4v0.8l3.8,0.4v4.8
			l0.6,0l0.3,0V141l3.7,0.4v4.5l0.8,0v-4.5l3.7,0.4v4.2l0.2,0l0.6,0v-4.2l3.5,0.4v4l0.2,0v-14l-4.4-1L315,130.2z M314.6,140.5
			l-3.7-0.4v-5.5l3.7,0.7V140.5z M314.6,134.5l-3.7-0.7v-4.3l3.7,0.9V134.5z M319.2,141l-3.7-0.4v-5.1l3.7,0.7V141z M319.2,135.3
			l-3.7-0.7v-4.1l3.7,0.9V135.3z M320,131.6l3.5,0.8v3.6l-3.5-0.6V131.6z M320,136.3l3.5,0.6v4.5l-3.5-0.4V136.3z"/>
		
			<rect id="XMLID_322_" x="305.9" y="134.4" transform="matrix(0.9845 0.1756 -0.1756 0.9845 28.5628 -53.2412)" class="st37" width="18.4" height="0.7"/>
		
			<rect id="XMLID_321_" x="305.9" y="140.4" transform="matrix(0.9947 0.1026 -0.1026 0.9947 16.0987 -31.5704)" class="st37" width="18.2" height="0.7"/>
		<rect id="XMLID_320_" x="315" y="129.5" class="st37" width="0.7" height="16.8"/>
		<rect id="XMLID_319_" x="310.4" y="128.5" class="st37" width="0.7" height="17.6"/>
		<rect id="XMLID_318_" x="319.5" y="130.7" class="st37" width="0.7" height="15.8"/>
		<polygon id="XMLID_317_" class="st39" points="321.2,123.2 318.4,119.8 318.4,140.3 318.9,140.3 318.9,149 319.9,149 319.9,140.4 
			327.2,141.2 327.2,135.9 		"/>
		<g id="XMLID_305_">
			<rect id="XMLID_316_" x="321.2" y="107.3" class="st33" width="15.6" height="32.9"/>
			<g id="XMLID_309_">
				<path id="XMLID_315_" class="st27" d="M323.6,117c0.1-0.1,0.1-0.1,0.2-0.2c0.3-0.2,0.6-0.5,0.8-0.8c0.2-0.3,0.4-0.6,0.5-0.9
					c0.1-0.3,0.2-0.6,0.2-0.8c0-0.2,0-0.4,0-0.6c0-0.4,0.1-0.7,0.3-1.1c0.2-0.5,0.5-0.9,0.8-1.2c0.2-0.2,0.4-0.4,0.6-0.5
					c0,0,0.1,0,0.1,0c1,1,2,2,3,3c0,0,0,0,0,0c-0.1,0.1-0.2,0.1-0.3,0.2c-0.2,0.1-0.4,0.3-0.5,0.5c-0.2,0.2-0.3,0.4-0.4,0.6
					c-0.2,0.3-0.3,0.7-0.4,1c0,0.2-0.1,0.4-0.1,0.5c0,0.2,0,0.4,0,0.6c0,0.4-0.1,0.8-0.3,1.1c-0.3,0.7-0.8,1.3-1.4,1.7c0,0,0,0,0,0
					C325.7,119.1,324.6,118.1,323.6,117z"/>
				<path id="XMLID_314_" class="st30" d="M333.1,116.8c-1.3,0.8-1.8,2-1.6,3.5c-0.5-0.1-0.9-0.3-1.3-0.6c-0.4-0.3-0.7-0.6-1-1.1
					c-0.5-0.8-0.6-1.7-0.3-2.6c0.2-0.9,0.8-1.6,1.5-2C331.3,115,332.2,115.9,333.1,116.8z"/>
				<path id="XMLID_313_" class="st32" d="M332.7,117.5c0.6,0.6,1.2,1.2,1.8,1.8c0,0,0,0.1,0,0.1c-0.2,0.2-0.5,0.4-0.7,0.5
					c-0.3,0.2-0.6,0.3-0.9,0.3c-0.1,0-0.3,0.1-0.4,0.1c-0.2,0-0.4,0-0.6,0c0,0-0.1,0-0.1,0c0,0,0,0,0,0c0-0.1,0-0.3-0.1-0.4
					c0-0.1,0-0.3,0-0.4c0-0.2,0-0.4,0.1-0.6c0.1-0.2,0.1-0.4,0.2-0.6c0.1-0.2,0.2-0.4,0.4-0.6C332.5,117.6,332.6,117.6,332.7,117.5
					C332.6,117.5,332.7,117.5,332.7,117.5z"/>
				<linearGradient id="XMLID_56_" gradientUnits="userSpaceOnUse" x1="329.0218" y1="117.07" x2="332.3166" y2="114.4594">
					<stop  offset="0.2391" style="stop-color:#C52876"/>
					<stop  offset="1" style="stop-color:#BC4D97;stop-opacity:0"/>
				</linearGradient>
				<path id="XMLID_312_" class="st42" d="M332.5,116.2c-0.7-0.7-1.4-1.4-2.1-2.1c-0.8,0.5-1.3,1.2-1.5,2c-0.2,0.8-0.1,1.6,0.3,2.4
					C329.8,117.1,330.9,116.3,332.5,116.2z"/>
				<linearGradient id="XMLID_58_" gradientUnits="userSpaceOnUse" x1="323.8693" y1="115.8383" x2="329.3224" y2="112.1226">
					<stop  offset="0.2218" style="stop-color:#008EBC"/>
					<stop  offset="1" style="stop-color:#3ABDE3;stop-opacity:0"/>
				</linearGradient>
				<path id="XMLID_311_" class="st43" d="M330.1,113.8c-1-1-2-2-3-3c0,0-0.1,0-0.1,0c-0.2,0.2-0.4,0.3-0.6,0.5
					c-0.3,0.4-0.6,0.8-0.8,1.2c-0.1,0.4-0.2,0.7-0.3,1.1c0,0.2,0,0.4,0,0.6c0,0.3-0.1,0.6-0.2,0.8c-0.1,0.3-0.3,0.7-0.5,0.9
					c-0.2,0.3-0.5,0.6-0.8,0.8c-0.1,0.1-0.1,0.1-0.2,0.2c0.3,0.3,0.7,0.7,1,1c0.6-0.2,1.1-0.4,1.5-0.8c0.3-0.3,0.6-0.6,0.8-0.9
					c0.1-0.2,0.2-0.4,0.3-0.6c0.1-0.2,0.2-0.3,0.4-0.5c0.3-0.3,0.6-0.6,0.9-0.8c0.2-0.1,0.5-0.2,0.7-0.3c0.2-0.1,0.5-0.2,0.7-0.2
					C330,113.9,330.1,113.9,330.1,113.8C330.2,113.9,330.2,113.9,330.1,113.8C330.2,113.9,330.2,113.9,330.1,113.8z"/>
				<linearGradient id="XMLID_59_" gradientUnits="userSpaceOnUse" x1="332.4055" y1="119.0288" x2="333.6439" y2="117.1023">
					<stop  offset="0" style="stop-color:#FECB1B"/>
					<stop  offset="1" style="stop-color:#FDE90E;stop-opacity:0"/>
				</linearGradient>
				<path id="XMLID_310_" class="st44" d="M332.7,117.5C332.7,117.5,332.6,117.5,332.7,117.5c-0.1,0.1-0.1,0.1-0.2,0.2
					c-0.2,0.2-0.3,0.4-0.4,0.6c-0.1,0.2-0.2,0.4-0.2,0.6c-0.1,0.2-0.1,0.4-0.1,0.6c0,0.1,0,0.1,0,0.2c0,0,0,0,0,0c0,0,0.1,0,0.1,0
					c0.2-0.1,0.3-0.1,0.5-0.2c0.1-0.1,0.2-0.1,0.4-0.2c0.3-0.2,0.5-0.4,0.7-0.6c0.1-0.1,0.1-0.1,0.2-0.2
					C333.3,118.1,333,117.8,332.7,117.5z"/>
			</g>
			<g id="XMLID_306_">
				<rect id="XMLID_308_" x="321.7" y="135.6" class="st33" width="1" height="13.4"/>
				<rect id="XMLID_307_" x="335.4" y="135.6" class="st33" width="1" height="13.4"/>
			</g>
		</g>
	</g>
	<g id="XMLID_257_">
		<path id="XMLID_303_" class="st25" d="M43,149C43,149,43,149,43,149C43,149,43.1,149,43,149h6.9c0.6-0.6,1-1.4,1-2.3
			c0-0.9-0.4-1.6-1-2.3c0.3-0.4,0.4-0.8,0.4-1.3c0-1.4-1.2-2.5-2.9-2.6c-0.4-2.3-2.2-4-4.4-4c-1.9,0-3.6,1.3-4.2,3.2
			c-0.3-0.1-0.5-0.1-0.8-0.1c-1.2,0-2.2,0.8-2.2,1.8c0,0.3,0.1,0.6,0.3,0.9c-1.8,0.7-3.1,2.2-3.1,4c0,1,0.4,2,1.2,2.8H43z"/>
		<path id="XMLID_302_" class="st24" d="M42.4,149h8.8c0,0,0,0,0,0c0,0,0,0,0,0h11.1c1-1,1.5-2.2,1.5-3.5c0-2.2-1.6-4.1-4-5.1
			c0.2-0.3,0.4-0.7,0.4-1.1c0-1.3-1.3-2.3-2.9-2.3c-0.4,0-0.7,0.1-1,0.2c-0.8-2.4-2.9-4.1-5.4-4.1c-2.8,0-5.2,2.2-5.6,5.1
			c-2.1,0.2-3.7,1.6-3.7,3.4c0,0.6,0.2,1.2,0.5,1.7c-0.8,0.8-1.3,1.8-1.3,2.9C41.1,147.2,41.6,148.2,42.4,149z"/>
		<path id="XMLID_301_" class="st24" d="M144.7,149h8.8c0,0,0,0,0,0c0,0,0,0,0,0h11.1c1-1,1.5-2.2,1.5-3.5c0-2.2-1.6-4.1-4-5.1
			c0.2-0.3,0.4-0.7,0.4-1.1c0-1.3-1.3-2.3-2.9-2.3c-0.4,0-0.7,0.1-1,0.2c-0.8-2.4-2.9-4.1-5.4-4.1c-2.8,0-5.2,2.2-5.6,5.1
			c-2.1,0.2-3.7,1.6-3.7,3.4c0,0.6,0.2,1.2,0.5,1.7c-0.8,0.8-1.3,1.8-1.3,2.9C143.4,147.2,143.9,148.2,144.7,149z"/>
		<polygon id="XMLID_300_" class="st45" points="130.3,148.9 54.1,148.9 54.1,129.4 130.3,119.2 		"/>
		<polygon id="XMLID_299_" class="st46" points="84.3,148.9 54.1,148.9 54.1,129.4 99.2,123.4 		"/>
		<polygon id="XMLID_298_" class="st46" points="130.3,122.4 54.1,131.5 54.1,129.4 130.3,119.2 		"/>
		<polygon id="XMLID_297_" class="st47" points="130.3,120.1 54.1,130 54.1,129.4 130.3,119.2 		"/>
		<polygon id="XMLID_296_" class="st48" points="130.3,148.9 157.7,148.9 157.7,123.8 130.3,119.2 		"/>
		<polygon id="XMLID_295_" class="st49" points="130.3,122.4 157.7,126.4 157.7,123.8 130.3,119.2 		"/>
		<polygon id="XMLID_294_" class="st45" points="130.3,119.2 52.3,129.8 56.6,123.4 127.8,110.3 		"/>
		<polygon id="XMLID_293_" class="st48" points="130.3,119.2 159,124.2 153.1,115.8 127.8,110.3 		"/>
		<polygon id="XMLID_292_" class="st47" points="54.1,130 54.1,129.6 52.3,129.8 		"/>
		<polygon id="XMLID_291_" class="st35" points="56.9,146.4 77.3,146 77.3,133.2 56.9,135 		"/>
		<polygon id="XMLID_290_" class="st37" points="57.4,146.1 76.8,145.8 76.8,133.5 57.4,135.2 		"/>
		<polygon id="XMLID_289_" class="st33" points="57.4,146.1 76.8,145.8 76.8,145.4 57.7,145.8 57.7,135.2 57.4,135.2 		"/>
		<polygon id="XMLID_288_" class="st33" points="103.7,122.8 73.6,126.9 73.6,117.3 103.7,111.5 		"/>
		<path id="XMLID_287_" class="st49" d="M150.8,115.3l-14.4-3.1c-0.5,2.6,1.3,5.9,2.1,8.5c-0.1,0-0.4-0.1-0.5-0.1
			c0.1,7.4,0.1,14.8,0.2,22.1l0,0v4.9h-2.9c-0.2,0-0.4,0.2-0.4,0.4v0.8c0,0.1,0,0.1,0.1,0.1h6.7c0.1,0,0.1,0,0.1-0.1V148
			c0-0.2-0.2-0.4-0.4-0.4h-2.9v-4.9L150.8,115.3z"/>
		<polygon id="XMLID_286_" class="st47" points="157.7,124.3 157.7,124 159,124.2 		"/>
		<polygon id="XMLID_285_" class="st35" points="99,150 79.8,150 79.8,131.2 99,129.1 		"/>
		<polygon id="XMLID_284_" class="st33" points="98.2,149.1 80.6,149.1 80.6,131.8 98.2,130 		"/>
		<polygon id="XMLID_283_" class="st37" points="98.2,149.1 81.3,149.1 81.3,132.4 98.2,130.7 		"/>
		<polygon id="XMLID_282_" class="st35" points="124.9,145.3 102.1,145.7 102.1,130.8 124.9,128.7 		"/>
		<polygon id="XMLID_281_" class="st37" points="124.3,144.9 102.6,145.3 102.6,131.1 124.3,129.1 		"/>
		<polygon id="XMLID_280_" class="st33" points="124.3,144.9 102.6,145.3 102.6,131.1 103,131.1 103,145 124.3,144.5 		"/>
		<g id="XMLID_278_">
			<line id="XMLID_279_" class="st41" x1="273.9" y1="149" x2="7.6" y2="149"/>
		</g>
		<rect id="XMLID_277_" x="89.4" y="131.3" class="st33" width="0.8" height="17.9"/>
		<rect id="XMLID_276_" x="89.1" y="130.7" class="st35" width="0.7" height="18.4"/>
		<polygon id="XMLID_275_" class="st35" points="90.9,141.9 87.8,141.9 87.8,139 90.9,138.9 		"/>
		<polygon id="XMLID_274_" class="st33" points="108.2,137.8 104.3,137.8 104.3,132.4 108.2,132.1 		"/>
		<polygon id="XMLID_273_" class="st47" points="157.7,124.3 130.3,120.1 130.3,119.2 157.7,124 		"/>
		<polygon id="XMLID_272_" class="st46" points="103.7,122.8 105.4,114.4 103.7,114.8 		"/>
		<g id="XMLID_268_">
			<rect id="XMLID_271_" x="141.3" y="133.7" class="st33" width="0.4" height="13.8"/>
			<path id="XMLID_270_" class="st33" d="M138.6,147.5h5.7c0.3,0,0.6,0.3,0.6,0.6v0.5c0,0.1-0.1,0.2-0.2,0.2h-6.6
				c-0.1,0-0.2-0.1-0.2-0.2v-0.5C138,147.8,138.3,147.5,138.6,147.5z"/>
			<path id="XMLID_269_" class="st33" d="M157.1,107.9l-0.1,0.3l-15.3,34.5l-0.4,0c-0.1-7.3-0.2-14.8-0.2-22.2
				c0-2.7-0.1-5.4,0.4-8.1c0.2-0.9,0.4-1.8,0.7-2.6c0.7-2,2.1-4.3,3.9-5.6c1.1-0.8,2.5-1.1,3.9-1.1c1.2,0,2.2,0.3,3,0.7
				c0.8,0.4,1.4,0.9,2.1,1.6c0.4,0.4,0.8,0.8,1,1.1C156.5,107.1,156.8,107.5,157.1,107.9z"/>
		</g>
		<polygon id="XMLID_267_" class="st50" points="60.6,145.7 68.6,134.2 74,133.7 66.6,145.6 		"/>
		<g id="XMLID_262_">
			<path id="XMLID_266_" class="st33" d="M73.2,147.2h-5.4c-0.9,0-1.6,0.7-1.6,1.6h8.5C74.8,147.9,74.1,147.2,73.2,147.2z"/>
			<path id="XMLID_263_" class="st33" d="M67.7,140.1v7.5l5.7,0v-7.8L67.7,140.1z M71.1,140.7l-1.3,0.1c0,0,0,0,0,0
				c-0.1,0-0.2-0.1-0.2-0.2c0-0.1,0.1-0.2,0.2-0.2l1.3-0.1c0.1,0,0.2,0.1,0.2,0.2C71.4,140.6,71.3,140.7,71.1,140.7z"/>
		</g>
		<path id="XMLID_261_" class="st33" d="M71.3,138"/>
		<polygon id="XMLID_260_" class="st50" points="66.3,134.4 59,145.8 58,145.8 64.8,134.6 		"/>
		<polygon id="XMLID_259_" class="st50" points="109.6,144.8 120.6,129.5 115.7,129.9 106.2,144.9 		"/>
		<polygon id="XMLID_258_" class="st50" points="90.2,146.9 98.2,134.7 98.2,147.2 96.9,149.1 90.2,149.1 		"/>
	</g>
	<g id="XMLID_240_">
		<g id="XMLID_244_">
			<path id="XMLID_256_" class="st30" d="M150.2,135.5H149c-0.7,0-1.2,0.5-1.2,1.2s0.5,1.2,1.2,1.2h1.2c0.7,0,1.2-0.5,1.2-1.2
				S150.9,135.5,150.2,135.5z"/>
			<path id="XMLID_255_" class="st30" d="M178.9,135.5h-2.4c-0.7,0-1.2,0.5-1.2,1.2s0.5,1.2,1.2,1.2h2.4c0.7,0,1.2-0.5,1.2-1.2
				S179.6,135.5,178.9,135.5z"/>
			<path id="XMLID_254_" class="st30" d="M186.1,135.5h-2.4c-0.7,0-1.2,0.5-1.2,1.2s0.5,1.2,1.2,1.2h2.4c0.7,0,1.2-0.5,1.2-1.2
				S186.7,135.5,186.1,135.5z"/>
			<path id="XMLID_253_" class="st30" d="M157.4,135.5H155c-0.7,0-1.2,0.5-1.2,1.2s0.5,1.2,1.2,1.2h2.4c0.7,0,1.2-0.5,1.2-1.2
				S158.1,135.5,157.4,135.5z"/>
			<path id="XMLID_252_" class="st30" d="M171.7,135.5h-2.4c-0.7,0-1.2,0.5-1.2,1.2s0.5,1.2,1.2,1.2h2.4c0.7,0,1.2-0.5,1.2-1.2
				S172.4,135.5,171.7,135.5z"/>
			<path id="XMLID_251_" class="st30" d="M164.6,135.5h-2.4c-0.7,0-1.2,0.5-1.2,1.2s0.5,1.2,1.2,1.2h2.4c0.7,0,1.2-0.5,1.2-1.2
				S165.2,135.5,164.6,135.5z"/>
			<path id="XMLID_250_" class="st30" d="M214.7,135.5h-2.4c-0.7,0-1.2,0.5-1.2,1.2s0.5,1.2,1.2,1.2h2.4c0.7,0,1.2-0.5,1.2-1.2
				S215.4,135.5,214.7,135.5z"/>
			<path id="XMLID_249_" class="st30" d="M229.1,135.5h-2.4c-0.7,0-1.2,0.5-1.2,1.2s0.5,1.2,1.2,1.2h2.4c0.7,0,1.2-0.5,1.2-1.2
				S229.7,135.5,229.1,135.5z"/>
			<path id="XMLID_248_" class="st30" d="M243.4,135.5H241c-0.7,0-1.2,0.5-1.2,1.2s0.5,1.2,1.2,1.2h2.4c0.7,0,1.2-0.5,1.2-1.2
				S244.1,135.5,243.4,135.5z"/>
			<path id="XMLID_247_" class="st30" d="M236.3,135.5h-2.4c-0.7,0-1.2,0.5-1.2,1.2s0.5,1.2,1.2,1.2h2.4c0.7,0,1.2-0.5,1.2-1.2
				S236.9,135.5,236.3,135.5z"/>
			<path id="XMLID_246_" class="st30" d="M221.9,135.5h-2.4c-0.7,0-1.2,0.5-1.2,1.2s0.5,1.2,1.2,1.2h2.4c0.7,0,1.2-0.5,1.2-1.2
				S222.6,135.5,221.9,135.5z"/>
			<path id="XMLID_245_" class="st30" d="M249.4,135.5h-1.2c-0.7,0-1.2,0.5-1.2,1.2s0.5,1.2,1.2,1.2h1.2c0.7,0,1.2-0.5,1.2-1.2
				S250,135.5,249.4,135.5z"/>
		</g>
		<g id="XMLID_241_">
			<path id="XMLID_242_" class="st30" d="M200.5,137.4v4H198v-4h-4.1V135h4.1v-4h2.5v4h4.1v2.4H200.5z"/>
		</g>
	</g>
	<rect id="XMLID_239_" x="7.6" y="149" class="st51" width="359.9" height="87.4"/>
	<g id="XMLID_3_">
		<g id="XMLID_871_">
			<path id="XMLID_933_" class="st28" d="M88.4,178.8l0,7.6l-4.4,0l0-7.6l-6.8-10.4l5.3,0l3.8,6.7l3.8-6.7l5.1,0L88.4,178.8z"/>
			<path id="XMLID_930_" class="st28" d="M104.8,187c-5.6,0-9.8-3.9-9.8-9.6c0-5.8,4.2-9.4,9.8-9.4c5.7,0,9.8,3.6,9.8,9.4
				C114.6,183.1,110.4,187,104.8,187z M104.8,171.9c-3.1,0-5.1,2.3-5.1,5.5c0,3.3,2.1,5.6,5.1,5.6s5.2-2.3,5.2-5.6
				C109.9,174.2,107.8,171.9,104.8,171.9z"/>
			<path id="XMLID_928_" class="st28" d="M125,187c-4.7,0-7.7-3-7.7-7.3l0-11.2l4.3,0l0,10.9c0,1.9,0.9,3.7,3.4,3.7
				c2.5,0,3.4-1.8,3.4-3.7l0-10.9l4.4,0l0,11.2C132.7,184,129.7,187,125,187z"/>
			<path id="XMLID_925_" class="st28" d="M145.9,186.5l-3.9-7.2l-1.5,0l0,7.2l-4.3,0l0-18l6.9,0c3.5,0,6.9,1.3,6.9,5.4
				c0,2.4-1.4,4.1-3.7,4.9l4.7,7.7L145.9,186.5z M142.8,172l-2.3,0v4.2l2.1,0c1.4,0,3.2-0.4,3.2-2.2
				C145.7,172.3,144.1,172,142.8,172z"/>
			<path id="XMLID_923_" class="st28" d="M159.5,186.5l0-18l12.1,0l0,3.7l-7.9,0v3.4l7.5,0l0,3.5l-7.5,0l0,3.7l8.4,0v3.7
				L159.5,186.5z"/>
			<path id="XMLID_921_" class="st28" d="M185.8,186.5l-3.9-6.4l-3.8,6.4l-5.2,0l6.3-9.5l-5.8-8.5l5.2,0l3.4,5.6l3.3-5.6l5.1,0
				l-5.7,8.5l6.5,9.5L185.8,186.5z"/>
			<path id="XMLID_919_" class="st28" d="M200.5,172.2l0,14.3l-4.4,0l0-14.3l-5.1,0l0-3.7l14.5,0l0,3.7L200.5,172.2z"/>
			<path id="XMLID_917_" class="st28" d="M207.6,186.5l0-18l12.1,0l0,3.7l-7.9,0v3.4l7.5,0l0,3.5l-7.5,0l0,3.7l8.4,0v3.7
				L207.6,186.5z"/>
			<path id="XMLID_915_" class="st28" d="M234.5,186.5l-7.3-11.8l-0.1,0l0.1,11.8l-4.2,0l0-18l5,0l7.2,11.8h0.1l-0.1-11.8l4.2,0
				l0,18L234.5,186.5z"/>
			<path id="XMLID_912_" class="st28" d="M249.9,186.5l-6.7,0l0-18l6.5,0c5.1,0,10.3,2.1,10.3,9C260,183.7,254.8,186.5,249.9,186.5z
				 M249.6,172.1h-2.2l0,10.5h2.1c3.1,0,6-1.3,6-5.3C255.5,173.3,252.6,172.1,249.6,172.1z"/>
			<path id="XMLID_910_" class="st28" d="M262.9,186.4l0-18l12.1,0l0,3.7l-7.9,0v3.4l7.5,0l0,3.5l-7.5,0l0,3.7l8.4,0v3.7
				L262.9,186.4z"/>
			<path id="XMLID_907_" class="st28" d="M285,186.4l-6.7,0l0-18l6.5,0c5.1,0,10.3,2.1,10.3,9C295.1,183.7,290,186.4,285,186.4z
				 M284.7,172.1l-2.2,0l0,10.5l2.1,0c3.1,0,6-1.3,6-5.3C290.6,173.3,287.7,172.1,284.7,172.1z"/>
			<path id="XMLID_904_" class="st28" d="M68.2,210.2l-2.2,0l0,6.8l-4.4,0l0-18l6.6,0c3.9,0,7,1.4,7.1,5.5
				C75.3,208.7,72,210.2,68.2,210.2z M67.9,202.5l-1.9,0v4.3l1.8,0c1.6,0,3.1-0.5,3.1-2.2C71,202.8,69.5,202.5,67.9,202.5z"/>
			<path id="XMLID_901_" class="st28" d="M87.6,217l-3.9-7.2h-1.5l0,7.2l-4.3,0l0-18l6.9,0c3.5,0,6.9,1.3,6.9,5.4
				c0,2.4-1.4,4.1-3.7,4.9l4.7,7.7L87.6,217z M84.5,202.5l-2.3,0v4.2l2.1,0c1.4,0,3.2-0.4,3.2-2.2C87.4,202.8,85.8,202.5,84.5,202.5
				z"/>
			<path id="XMLID_898_" class="st28" d="M103.8,217.5c-5.6,0-9.8-3.9-9.8-9.6c0-5.8,4.2-9.4,9.8-9.4c5.7,0,9.8,3.6,9.8,9.4
				C113.6,213.6,109.4,217.5,103.8,217.5z M103.8,202.4c-3.1,0-5.1,2.3-5.1,5.5c0,3.3,2.1,5.6,5.1,5.6c3,0,5.2-2.3,5.2-5.6
				C109,204.8,106.8,202.4,103.8,202.4z"/>
			<path id="XMLID_895_" class="st28" d="M123.2,217l-6.7,0l0-18l6.5,0c5.1,0,10.3,2.1,10.3,9C133.3,214.3,128.2,217,123.2,217z
				 M122.9,202.7l-2.2,0l0,10.5l2.1,0c3.1,0,6-1.3,6-5.3C128.8,203.9,125.9,202.7,122.9,202.7z"/>
			<path id="XMLID_893_" class="st28" d="M143.7,217.5c-4.7,0-7.7-3-7.7-7.3l0-11.2l4.3,0l0,10.9c0,1.9,0.9,3.7,3.4,3.7
				c2.5,0,3.4-1.8,3.4-3.7l0-10.9l4.4,0l0,11.2C151.5,214.5,148.4,217.5,143.7,217.5z"/>
			<path id="XMLID_891_" class="st28" d="M163.8,217.5c-5.5,0-9.7-3.9-9.7-9.5c0-5.8,4.3-9.5,9.8-9.5c2.5,0,5.2,0.9,6.7,2.6l-3,3
				c-0.8-1.1-2.3-1.7-3.6-1.7c-3,0-5.2,2.3-5.2,5.5c0,3.3,2.1,5.5,5.1,5.5c1.7,0,3.1-0.8,3.8-1.8l3,2.9
				C169.2,216.3,166.9,217.5,163.8,217.5z"/>
			<path id="XMLID_889_" class="st28" d="M180.2,202.7l0,14.3l-4.4,0l0-14.3l-5.1,0l0-3.7l14.5,0l0,3.7L180.2,202.7z"/>
			<path id="XMLID_887_" class="st28" d="M187.3,217l0-18l4.4,0l0,18L187.3,217z"/>
			<path id="XMLID_884_" class="st28" d="M204.4,217.5c-5.6,0-9.8-3.9-9.8-9.6c0-5.8,4.2-9.4,9.8-9.4c5.7,0,9.8,3.6,9.8,9.4
				C214.2,213.6,210,217.5,204.4,217.5z M204.4,202.4c-3.1,0-5.1,2.3-5.1,5.5c0,3.3,2.1,5.6,5.1,5.6c3,0,5.2-2.3,5.2-5.6
				C209.5,204.8,207.4,202.4,204.4,202.4z"/>
			<path id="XMLID_882_" class="st28" d="M228.5,217l-7.3-11.8h-0.1l0.1,11.8l-4.2,0l0-18l5,0l7.2,11.8h0.1l-0.1-11.8l4.2,0l0,18
				L228.5,217z"/>
			<path id="XMLID_880_" class="st28" d="M253,203.7c-0.7-0.9-2.1-1.6-3.2-1.6c-1.1,0-2.5,0.4-2.5,1.8c0,1.2,1.1,1.6,2.8,2.1
				c2.4,0.8,5.6,1.8,5.6,5.4c0,4.1-3.3,6-6.9,6c-2.6,0-5.2-0.9-6.7-2.6l2.9-2.9c0.9,1.1,2.5,1.9,3.9,1.9c1.3,0,2.5-0.5,2.5-2
				c0-1.4-1.4-1.8-3.7-2.6c-2.3-0.7-4.6-1.9-4.6-5.2c0-4,3.6-5.7,7-5.7c2,0,4.3,0.8,5.9,2.2L253,203.7z"/>
			<path id="XMLID_878_" class="st28" d="M269.9,217l0-7.5l-7,0l0,7.5l-4.4,0l0-18l4.4,0l0,6.8l7,0l0-6.8l4.4,0l0,18L269.9,217z"/>
			<path id="XMLID_875_" class="st28" d="M287,217.5c-5.6,0-9.8-3.9-9.8-9.6c0-5.8,4.2-9.4,9.8-9.4c5.7,0,9.8,3.6,9.8,9.4
				C296.8,213.6,292.6,217.5,287,217.5z M287,202.4c-3.1,0-5.1,2.3-5.1,5.5c0,3.3,2.1,5.6,5.1,5.6c3,0,5.2-2.3,5.2-5.6
				C292.1,204.7,290,202.4,287,202.4z"/>
			<path id="XMLID_872_" class="st28" d="M306.2,210.2l-2.2,0l0,6.8l-4.4,0l0-18l6.6,0c3.9,0,7,1.4,7.1,5.5
				C313.3,208.7,309.9,210.2,306.2,210.2z M305.9,202.5l-1.9,0v4.3l1.8,0c1.6,0,3.1-0.5,3.1-2.2C309,202.8,307.5,202.5,305.9,202.5z
				"/>
		</g>
	</g>
</g>
<rect id="XMLID_1_" x="37.5" y="0" class="st52" width="300" height="250"/>
<rect id="XMLID_7_" x="37.5" class="st52" width="300" height="250"/>
</svg>
