<?xml version="1.0" encoding="utf-8"?>
<!-- Generator: Adobe Illustrator 19.0.0, SVG Export Plug-In . SVG Version: 6.00 Build 0)  -->
<svg version="1.1" id="Layer_1" xmlns="http://www.w3.org/2000/svg" xmlns:xlink="http://www.w3.org/1999/xlink" x="0px" y="0px"
	 viewBox="0 0 75 75" style="enable-background:new 0 0 75 75;" xml:space="preserve">
<style type="text/css">
	.st0{fill:none;stroke:#0098D4;stroke-width:1.5;stroke-linecap:round;stroke-linejoin:round;stroke-miterlimit:10;}
</style>
<g>
	<path id="XMLID_6_" class="st0" d="M52.8,48.5c0,0-0.1,2.4-3.2,2.7c-0.7,0.1-6.2,0.2-6.2,0.2V34.6c0,0-0.2-3.6,2.6-6.3
		c2.6-2.5,6.2-2.5,6.2-2.5L52.8,48.5z"/>
	<path id="XMLID_5_" class="st0" d="M41.7,18.5l-0.1,0.3L27.1,51.2h-0.4c-0.1-6.9-0.2-13.9-0.2-20.9c0-2.5-0.1-5.1,0.4-7.6
		c0.2-0.8,0.4-1.7,0.7-2.5c0.7-1.9,2-4.1,3.7-5.2c1.1-0.7,2.4-1.1,3.7-1c1.1,0,2,0.3,2.8,0.6c0.8,0.4,1.4,0.9,2,1.5
		c0.4,0.4,0.7,0.8,1,1.1C41.1,17.7,41.4,18.1,41.7,18.5z"/>
	<line id="XMLID_4_" class="st0" x1="26.8" y1="51" x2="26.8" y2="61"/>
	<line id="XMLID_3_" class="st0" x1="43.5" y1="51.5" x2="43.5" y2="61"/>
	<line id="XMLID_2_" class="st0" x1="22.3" y1="61" x2="31.2" y2="61"/>
	<line id="XMLID_1_" class="st0" x1="39.1" y1="61" x2="47.9" y2="61"/>
</g>
</svg>
